<svg xmlns="http://www.w3.org/2000/svg" height="800" width="1200" viewBox="-32.93967 -11.25 285.47714 67.5"><g fill-rule="evenodd" fill="none"><path fill="#4C4C4E" d="M82.3137 33.7674H77.857V11.2326h4.4568v9.1755h8.3288v-9.1755h4.458v22.5348h-4.458v-9.432h-8.3288zm22.9675-8.5768h4.8803l-1.3979-5.0687-.9772-3.4954h-.1631l-.9164 3.4802zm5.8558 3.5409h-6.9945l-1.7248 4.99H97.961l8.1986-22.6964h3.2857l8.1992 22.6963h-4.6854zm27.1479-11.1075l-1.6486 3.461-4.1544 8.55h-1.4315l-4.816-8.775-1.7584-3.2957h-.2376l.0563 4.3847v11.8187h-3.8168V11.2323h4.1647l5.6563 9.544 1.403 2.475h.1302l1.295-2.5353 5.3237-9.4837h4.1505v22.5354h-4.105V22.1735l.0228-4.5495zm18.9728 10.0912c0-.6868-.2553-1.2442-.764-1.674-.5106-.4292-1.15-.8207-1.9198-1.1745-.7703-.3544-1.606-.7194-2.5058-1.0952-.9005-.3752-1.7356-.837-2.5053-1.3843-.7697-.5467-1.4098-1.228-1.9192-2.0441-.51-.8156-.7646-1.8563-.7646-3.123 0-1.094.1842-2.0441.5537-2.8485.3678-.805.8942-1.4754 1.577-2.012.6838-.5367 1.491-.9338 2.424-1.1909.9322-.2582 1.9737-.387 3.1237-.387 1.3228 0 2.57.1125 3.7417.338 1.171.2256 2.6775.6666 3.507 1.25l-1.3638 3.7676c-.4781-.3004-1.8396-.9073-2.794-1.1543-.9551-.247-1.9852-.37-3.0909-.37-1.0414 0-1.8384.204-2.3916.6113-.5525.4084-.8294.9557-.8294 1.6414 0 .644.2547 1.1807.7646 1.6105.5094.4291 1.149.8263 1.9198 1.1908.7691.3656 1.6048.7408 2.5047 1.1267.9004.3864 1.7355.8538 2.5052 1.4006.7698.5473 1.4099 1.2234 1.9198 2.0284.5093.8043.764 1.8084.764 3.0099 0 1.2026-.2 2.237-.6014 3.1061-.4014.8702-.9653 1.5941-1.6918 2.1735-.727.5794-1.606 1.0091-2.6349 1.2876-1.0312.2784-2.1636.4185-3.4.4185-1.627 0-3.0585-.1502-4.2949-.4506-1.2364-.3004-1.3422-.2936-2.2267-.5951v-4.3768c.5605.2801 1.473.5726 1.852.7222.3793.1508.8085.2897 1.2854.419a15.01 15.01 0 001.5133.3218c.531.0855 1.079.1283 1.6429.1283 1.3223 0 2.337-.2194 3.0425-.6593.7037-.4398 1.0568-1.1109 1.0568-2.0126m17.991 6.0522h-4.4574V15.16h-6.721l1.42-3.9273h16.3954V15.16h-6.637zm23.2655-18.6077h-9.045v5.2481h6.0537v3.9274h-6.0537v5.5046h9.0683v3.928h-13.5252V11.2323h13.502zm11.6872-.3217c-.4559 0-.9061.0112-1.3507.032-.4445.022-.7862.0647-1.0244.1294v6.5351h1.8874c1.2358 0 2.2227-.2784 2.9606-.837.7373-.5585 1.1057-1.481 1.1057-2.7686 0-.9664-.3042-1.7224-.9107-2.2697-.6077-.5479-1.4968-.8212-2.6679-.8212zm-6.8319-3.3795c.498-.0861 1.0352-.1665 1.61-.2425a32.5636 32.5636 0 011.7247-.1766c.5741-.0428.407-.0748.9493-.0968a38.208 38.208 0 011.4968-.032c1.0625 0 2.835.0967 3.8657.2897 1.0295.1935 1.9515.526 2.765.9978.8135.472 1.4644 1.1217 1.9522 1.948.4877.8263.7322 1.8619.7322 3.1061 0 1.8467-.4457 3.3401-1.3013 4.5073-.5127.6992-1.8691 1.6245-3.3222 2.075 0 0 1.2422.953 1.6128 1.692.324.6458 4.143 8.2413 4.143 8.2413h-4.9701l-4.5234-9.2149-2.2779-.0248v9.2397h-4.4568z"/><path fill="#E14449" d="M59.9496 33.7486h-5.1163l6.8217-11.25-6.8217-11.25h5.1185l4.5478 7.2422 4.557-7.2422h5.1048l-6.8217 11.25 6.8217 11.25H69.081l-4.5836-7.4768z"/><g fill="#4C4C4E"><path d="M46.6123 25.4025c-.7567 2.0874-3.1391 5.4394-5.0344 7.7338-2.0522 2.4835-4.338 4.4882-7.11 6.1481-2.7025 1.619-6.646 3.2142-9.8937 3.3132-3.2471-.099-7.1907-1.6943-9.8932-3.3132-2.7719-1.6599-5.0577-3.6646-7.11-6.148-1.8952-2.2945-4.2777-5.6465-5.0343-7.7339-.3036-.8376-.3354-1.7179-.0245-2.6404.539-1.4912 1.7424-2.8895 3.042-3.7862.473-.3262.9538-.5523 1.3256-.4938 1.0727.1698 1.677 1.6503 2.0977 2.4817-.286.2818-.6049.5068-.8942.8185-1.8334 1.9743-1.5582 4.4718-.4241 6.8726 1.532 3.1798 4.562 6.3478 7.218 8.6214-1.863-4.3982-1.1495-10.035 3.3892-12.5915-.4002 5.4691 12.183 6.3995 12.6162 0 4.5387 2.5565 5.2521 8.1933 3.3892 12.5915 2.656-2.2736 5.6853-5.4416 7.218-8.6214 1.134-2.4008 1.4092-4.8983-.4241-6.8726-.2894-.3117-.6083-.5367-.8943-.8185.4207-.8314 1.025-2.3119 2.0977-2.4817.3718-.0585.8527.1676 1.3251.4938 1.3001.8967 2.503 2.295 3.0425 3.7862.311.9225.2791 1.8028-.0244 2.6404M9.131 5.436c1.05-.6362 2.649.4118 3.3233 1.1852 1.0414 1.1925 1.329 2.678.4775 4.0466-.759 1.1993-1.9953 2.3158-3.1385 3.163-.2513-.6824-.5026-1.3028-.7533-1.8608-.2876-.6823-.5378-1.4243-.6958-2.183-.2382-1.1498-.3843-3.6417.7868-4.351m6.0719 7.0836c1.1227-.6621 3.0942-.8601 4.1692.055.9402.8005 1.0875 2.3266.6622 3.5624-.0858.2498-.3194.7909-.5127.981 0-1.8478-1.27-3.3666-3.2085-3.294-.8294.0315-1.4905.4303-2.0005 1.0614-.8788 1.116-.8788 2.2945-.1262 3.473-.4036-.0378-.6907-.189-.8902-.409-.3974-.437-.4917-1.0558-.461-1.6234.0841-1.5322 1.0295-3.0172 2.3677-3.8064m3.5518-5.0102c.1381-.2908.5668-.4337.8521-.531 1.0892-.3724 2.968-.6221 4.8742-.6806l.0932-.0023.0938.0023c1.9055.0585 3.7849.3082 4.8741.6806.2854.0973.714.2402.8516.531.0648.1367.0653.2818.0023.419-.1376.2982-1.179 1.1307-1.503 1.3933-1.755 1.4215-2.8777 2.555-3.4672 4.8437-.3053 1.188-.2604 2.3625.1233 3.5342.6083 1.8552 1.9488 2.9599 2.5957 4.6373.3269.8482.4434 1.777.091 2.5127-.5822 1.2172-2.3228 1.4253-3.5286 1.449l-.133.0017-.1324-.0017c-1.2058-.0237-2.9464-.2318-3.5291-1.449-.3525-.7358-.2354-1.6645.0915-2.5127.647-1.6774 1.9874-2.7822 2.5956-4.6373.3838-1.1717.4287-2.3462.1234-3.5342-.5895-2.2888-1.7123-3.4222-3.4672-4.8437-.324-.2626-1.3654-1.0951-1.503-1.3933-.0631-.1372-.0631-.2823.0017-.419m15.1914 5.0102c1.3382.7891 2.2835 2.2741 2.3671 3.8064.0313.5676-.0631 1.1863-.4605 1.6234-.1995.22-.4866.3712-.8908.409.7533-1.1785.7533-2.357-.1256-3.473-.5105-.631-1.171-1.0299-2.0005-1.0614-1.9385-.0726-3.209 1.4462-3.209 3.294-.1927-.1901-.427-.7312-.5122-.981-.4252-1.2358-.278-2.7619.6623-3.5623 1.0744-.9152 3.0464-.7172 4.1692-.0551m2.748-5.8984c.6748-.7735 2.2739-1.8214 3.3239-1.1852 1.1705.7093 1.025 3.2012.7862 4.351-.1575.7587-.4076 1.5007-.6953 2.183-.2513.558-.502 1.1784-.7532 1.8607-1.1438-.847-2.3797-1.9636-3.1386-3.1629-.8521-1.3685-.5639-2.8541.477-4.0466m11.9783 15.098c-1.2114-2.7472-2.7247-3.6478-4.5864-4.9955-.7038-.5102-1.3848-.963-1.7356-1.5503-.2092-.3493-.2928-.7183-.2973-1.0946-.0063-.4618.1069-.9354.253-1.3956.6554-2.0632 1.022-3.492 1.0283-5.6694C43.3424 4.2986 42.2401.0017 38.8156 0c-.4968 0-.9584.0799-1.3882.2329-.8157.2902-1.4485.8004-1.992 1.4057-.673.7503-2.6695 3.7367-3.3602 4.0269-.1273.054-.2785.0371-.4354-.0101-2.6247-.7842-4.2119-1.1261-7.0656-1.1835-2.8532.0574-4.4404.3994-7.065 1.1835-.157.0472-.3081.0641-.436.0101-.6907-.2902-2.6872-3.2766-3.3597-4.027C13.17 1.0334 12.5373.5232 11.7215.233 11.2912.0799 10.8302 0 10.3333 0 6.9088.0017 5.8065 4.2986 5.8145 7.0138c.0057 2.1775.373 3.6062 1.0284 5.6694.146.4602.2592.9338.253 1.3956-.0046.3763-.0882.7453-.2974 1.0946-.3507.5873-1.0318 1.0401-1.7361 1.5503-1.8612 1.3477-3.3745 2.2483-4.5859 4.9955-.3667.8309-.481 1.7399-.4764 2.5842.0091 1.4732.5532 2.7253 1.3155 4.252 1.7202 3.4486 5.168 7.3647 7.5317 9.406 4.5507 3.9302 10.2405 6.7253 15.1846 7.0172.1807.0107.3615.018.5423.0214a13.417 13.417 0 00.5423-.0214c4.944-.292 10.6345-3.087 15.1851-7.0172 2.3632-2.0413 5.8116-5.9574 7.5318-9.406.7617-1.5267 1.3063-2.7788 1.3148-4.252.0051-.8443-.1091-1.7533-.4758-2.5841"/><path d="M27.2912 37.5047c-.0904.1806-.2035.3139-.3337.4174-.2393.1895-.5395.2807-.8754.3847-.4156.1283-.8601.2323-1.037.2323v-5.3359c1.0671.7442 2.1967.8685 3.4524.8061 0 .2756-.8135 2.7135-1.2063 3.4954zm-3.1874 1.0344c-.1768 0-.6214-.104-1.0375-.2323-.3354-.104-.6356-.1952-.8749-.3847-.1302-.1035-.2433-.2368-.3337-.4174-.3928-.7819-1.2063-3.2198-1.2063-3.4954 1.2552.0625 2.3853-.0619 3.4524-.806zm4.7854-5.8494c-.4724.1445-.9744.2402-1.5934.2081-.805-.0422-1.5747-.3527-2.0073-1.1964-.074-.1446-.2268-.1463-.6316-.1463l-.0279.0011-.0272-.001-.0273.001-.0273-.001c-.4053 0-.5577.0016-.6322.1462-.432.8437-1.2017 1.1542-2.0073 1.1964-.619.032-1.121-.0635-1.5934-.2081-1.822-.5597-1.9078-.8033-3.9463-.7796 1.8867 4.2896 4.836 7.488 8.1837 7.462l.0228-.0005.0221.0006h.0102l.0222-.0006.0227.0006c3.3478.0259 6.297-3.1725 8.1838-7.4621-2.0385-.0237-2.1244.2199-3.9463.7796z"/></g></g></svg>